<?xml version="1.0" standalone="no"?>
<!DOCTYPE svg PUBLIC "-//W3C//DTD SVG 20010904//EN"
 "http://www.w3.org/TR/2001/REC-SVG-20010904/DTD/svg10.dtd">
<svg version="1.0" xmlns="http://www.w3.org/2000/svg"
 width="400.000000pt" height="400.000000pt" viewBox="0 0 400.000000 400.000000"
 preserveAspectRatio="xMidYMid meet">

<g transform="translate(0.000000,400.000000) scale(0.100000,-0.100000)"
fill="#000000" stroke="none">
<path d="M240 2482 c0 -22 35 -62 190 -217 105 -105 193 -192 196 -195 3 -3
81 -7 172 -10 l167 -5 0 -195 0 -195 -292 -3 c-237 -2 -293 -5 -293 -16 0 -7
37 -50 82 -95 l82 -81 130 0 129 0 178 180 c158 159 179 183 179 212 0 29 -20
53 -178 210 l-178 178 -156 0 c-86 0 -163 3 -172 6 -13 5 -16 25 -16 114 0 60
-3 115 -6 124 -5 13 -25 16 -110 16 l-104 0 0 -28z"/>
<path d="M1370 1956 l0 -298 163 4 c129 3 169 8 197 22 45 22 80 73 87 124 7
51 -26 127 -61 144 -31 14 -33 24 -6 38 49 26 67 139 31 193 -38 58 -52 62
-239 67 l-172 5 0 -299z m323 214 c50 -40 44 -134 -9 -159 -14 -6 -74 -11
-134 -11 l-110 0 0 95 0 95 114 0 c99 0 117 -3 139 -20z m-8 -245 c62 -25 76
-116 26 -166 -29 -29 -30 -29 -150 -29 l-121 0 0 105 0 105 105 0 c70 0 117
-5 140 -15z"/>
<path d="M1923 2253 l-43 -4 0 -45 0 -44 45 0 45 0 0 50 c0 28 -1 49 -2 48 -2
-1 -22 -3 -45 -5z"/>
<path d="M2190 2091 c-60 -13 -98 -39 -127 -88 -24 -41 -28 -59 -28 -123 1
-146 67 -220 196 -220 80 0 141 26 169 72 28 47 26 58 -15 58 -25 0 -39 -6
-50 -23 -50 -76 -190 -56 -214 30 -6 21 -11 41 -11 46 0 4 75 7 166 7 l167 0
-6 51 c-4 28 -16 71 -28 95 -34 72 -130 113 -219 95z m131 -90 c19 -20 29 -40
29 -60 l0 -31 -120 0 c-76 0 -120 4 -120 10 0 24 30 79 51 94 15 10 44 16 77
16 46 0 58 -4 83 -29z"/>
<path d="M2605 2085 c-93 -25 -135 -114 -85 -177 25 -32 56 -44 149 -58 89
-13 109 -23 117 -57 11 -41 -32 -73 -99 -73 -63 0 -98 16 -115 53 -11 22 -20
27 -49 27 -35 0 -35 -1 -29 -32 14 -71 78 -108 186 -108 122 0 180 42 180 130
0 74 -50 107 -191 124 -78 10 -94 24 -90 79 2 26 65 50 110 42 47 -9 81 -31
81 -54 0 -19 29 -30 63 -23 38 8 4 83 -51 111 -52 26 -118 32 -177 16z"/>
<path d="M3050 2091 c-57 -12 -100 -40 -117 -76 -14 -29 -14 -41 -4 -75 16
-53 41 -67 147 -86 107 -18 134 -33 134 -74 0 -41 -32 -60 -101 -60 -47 0 -63
5 -88 26 -17 14 -31 32 -31 40 0 9 -12 14 -35 14 -29 0 -35 -4 -35 -20 0 -73
72 -119 185 -120 130 0 203 64 179 157 -13 51 -46 71 -156 91 -105 20 -128 32
-128 67 0 75 162 82 195 8 8 -18 18 -23 48 -23 36 0 37 1 31 28 -18 74 -124
123 -224 103z"/>
<path d="M3491 2089 c-90 -18 -142 -86 -149 -196 -10 -147 63 -233 198 -233
75 0 116 16 158 64 42 48 42 66 -2 66 -26 0 -43 -9 -69 -35 -28 -28 -43 -35
-75 -35 -23 0 -52 4 -66 10 -30 11 -66 65 -66 98 0 22 1 22 160 22 l160 0 0
45 c0 136 -110 222 -249 194z m119 -76 c30 -17 50 -51 50 -83 0 -19 -8 -20
-121 -20 l-121 0 6 33 c9 50 57 87 112 87 25 0 59 -7 74 -17z"/>
<path d="M1890 1875 l0 -216 38 3 37 3 0 210 0 210 -37 3 -38 3 0 -216z"/>
</g>
</svg>
