<?xml version="1.0" encoding="utf-8"?>
<svg width="100" height="52" viewBox="0 0 100 52" version="1.2" baseProfile="tiny-ps" xmlns="http://www.w3.org/2000/svg">
  <title>Formica Group</title>
  <g fill="none" fill-rule="evenodd">
    <path d="M98.151 23.282c-.088.033-.222.05-.399.05h-.38v-.824h.361c.232 0 .401.029.504.087.109.056.159.165.159.332a.35.35 0 0 1-.245.355zm.623 1.08c-.005-.06-.005-.116-.005-.17v-.165a.628.628 0 0 0-.129-.354c-.088-.121-.228-.194-.413-.221a.923.923 0 0 0 .347-.112c.154-.096.232-.244.232-.45 0-.282-.123-.475-.369-.573-.14-.056-.354-.083-.65-.083h-.834v2.275h.42v-.896h.33c.225 0 .38.023.47.073.148.082.223.258.223.52v.179l.01.075c0 .01.004.02.004.026.002.006.002.016.007.023h.392l-.012-.03a.33.33 0 0 1-.023-.117zm.376.284a1.83 1.83 0 0 1-1.322.524c-.516 0-.957-.174-1.32-.524a1.705 1.705 0 0 1-.54-1.27c0-.49.18-.91.544-1.259a1.83 1.83 0 0 1 1.316-.524c.518 0 .958.175 1.322.524.36.349.544.768.544 1.26 0 .496-.183.92-.544 1.269zm.216-2.73a2.16 2.16 0 0 0-1.538-.602 2.14 2.14 0 0 0-1.526.603c-.424.404-.634.89-.634 1.46 0 .575.21 1.065.627 1.47.422.405.933.61 1.533.61.602 0 1.116-.205 1.538-.61a1.96 1.96 0 0 0 .634-1.47c0-.57-.21-1.058-.634-1.46zm-9.23 4.565l1.328-3.116 1.325 3.116h-2.654zm-.141-5.32l-4.07 8.68h2.761l.75-1.646h4.029l.746 1.645h2.763l-4.07-8.679h-2.91zM52.46 24.697h-3.976V22.93h3.976c.496 0 .897.399.897.882a.89.89 0 0 1-.897.885zm3.423-.889c0-1.463-1.288-2.648-2.865-2.648h-7.067v8.68h2.527v-3.298h2.336l2.412 3.298h3.018l-2.586-3.442c1.268-.27 2.225-1.328 2.225-2.59zm-16.753 4.48c-1.849 0-2.762-1.231-2.762-2.787 0-1.554.913-2.787 2.762-2.787 1.853 0 2.762 1.233 2.762 2.787 0 1.556-.91 2.786-2.762 2.786zm0-7.287c-3.067 0-5.552 1.159-5.552 4.5 0 3.059 2.198 4.499 5.552 4.499 3.358 0 5.553-1.44 5.553-4.499 0-3.058-2.195-4.5-5.553-4.5zm44.192 5.327c-.12.909-.841 1.957-2.566 1.96-1.852.002-2.735-1.218-2.693-2.787.044-1.557.814-2.788 2.693-2.787 2.226.004 2.544 1.66 2.544 1.66l2.68-.785c-.555-1.44-2.166-2.553-5.224-2.588-3.068-.034-5.552 1.159-5.552 4.5 0 3.059 2.194 4.489 5.552 4.499 2.82.014 4.858-1.05 5.384-3.07l-2.818-.602zm-19.98-.224l-2.07-4.943h-3.89v8.68h2.449v-6.503l2.721 6.502h1.578l2.72-6.502v6.502h2.45v-8.679h-3.89l-2.067 4.943zm7.909 3.736h2.527v-8.679h-2.527v8.68zM24 29.84h2.53v-3.246h5.354v-1.9H26.53V23.04h6.336v-1.878H24v8.68z" fill="#000" />
    <path d="M0 0v1.786c8.492 0 15.375 10.838 15.375 24.212 0 13.375-6.883 24.217-15.375 24.217V52h50.223v-1.369c-16.82-2.092-29.178-9.62-29.178-24.633 0-16.137 17.79-23.068 39.727-23.068 17.732 0 32.754 4.529 37.863 14.787H100V0H0z" fill="#F00" />
  </g>
</svg>
