<?xml version="1.0" standalone="no"?>
<!DOCTYPE svg PUBLIC "-//W3C//DTD SVG 20010904//EN"
 "http://www.w3.org/TR/2001/REC-SVG-20010904/DTD/svg10.dtd">
<svg version="1.0" xmlns="http://www.w3.org/2000/svg"
 width="1000.000000pt" height="1000.000000pt" viewBox="0 0 1000.000000 1000.000000"
 preserveAspectRatio="xMidYMid meet">

<g transform="translate(0.000000,1000.000000) scale(0.100000,-0.100000)"
fill="#000000" stroke="none">
<path d="M8750 6057 c-103 -54 -119 -191 -31 -270 71 -64 170 -59 234 12 60
67 60 160 1 225 -55 59 -132 71 -204 33z m158 -17 c90 -55 96 -191 10 -253
-38 -28 -114 -33 -158 -10 -139 72 -87 283 70 283 27 0 58 -8 78 -20z"/>
<path d="M8782 5903 c1 -43 3 -61 5 -40 4 33 7 37 31 37 36 0 51 -11 62 -46 9
-27 9 -26 6 11 -1 22 2 48 8 58 19 31 -4 52 -63 55 l-51 3 2 -78z m96 43 c5
-23 -14 -36 -51 -36 -29 0 -43 19 -33 46 9 23 80 15 84 -10z"/>
<path d="M1930 4994 c-190 -542 -346 -992 -348 -1000 -3 -12 41 -14 282 -14
280 0 285 0 291 21 4 12 18 46 32 77 l25 57 12 -30 c55 -130 300 -205 528
-161 170 33 314 111 449 246 128 127 238 295 307 471 145 365 47 705 -228 796
-39 13 -84 18 -155 17 -124 0 -224 -26 -362 -94 -54 -27 -99 -47 -100 -46 -1
1 44 137 101 301 57 165 107 310 110 323 l7 22 -303 0 -303 0 -345 -986z m945
23 c175 -99 81 -450 -154 -576 -116 -62 -205 -62 -276 0 -112 98 -56 333 118
497 106 99 224 129 312 79z"/>
<path d="M4052 5923 c-24 -70 -669 -1903 -678 -1927 -6 -15 20 -16 297 -16
l304 0 350 991 c193 545 352 995 353 1000 2 5 -128 9 -301 9 l-305 0 -20 -57z"/>
<path d="M1294 5239 c-128 -128 -240 -246 -250 -264 -22 -42 -13 -82 24 -96
16 -7 61 -9 109 -6 90 6 113 -3 113 -46 -1 -12 -65 -206 -143 -432 -130 -372
-141 -410 -124 -413 11 -2 23 0 27 5 17 17 290 826 290 859 0 37 -28 73 -57
75 -10 1 -56 2 -103 3 -67 1 -85 4 -88 16 -4 20 434 470 458 470 9 0 23 -6 29
-14 13 -16 86 -628 77 -651 -8 -21 -31 -9 -109 57 -75 62 -123 65 -153 7 -16
-32 -284 -805 -284 -821 0 -5 10 -8 22 -6 21 3 37 44 155 383 73 209 137 390
142 403 16 34 48 27 111 -28 69 -60 103 -75 133 -59 31 16 37 28 37 72 0 65
-70 641 -81 670 -14 32 -37 47 -75 47 -23 0 -69 -41 -260 -231z"/>
<path d="M7238 5450 c-118 -21 -263 -82 -367 -153 l-44 -30 6 29 c3 16 8 46
12 67 l7 37 -280 0 -280 0 -25 -72 c-45 -133 -455 -1313 -462 -1331 -7 -16 10
-17 295 -15 l302 3 157 441 c87 242 168 454 181 472 81 109 235 135 294 50 31
-44 19 -92 -134 -528 -82 -235 -150 -430 -150 -434 0 -3 140 -5 312 -4 l312 3
133 375 c185 522 176 502 233 553 71 64 145 82 216 52 42 -17 68 -71 61 -126
-4 -27 -240 -732 -282 -841 -7 -17 11 -18 296 -18 l304 0 175 498 175 497 0
90 c0 77 -4 98 -27 147 -50 107 -135 177 -262 213 -93 27 -244 17 -366 -24
-94 -32 -207 -88 -287 -143 l-42 -29 -20 38 c-38 74 -115 137 -206 166 -62 21
-175 29 -237 17z"/>
<path d="M4602 5373 c-164 -457 -341 -967 -346 -997 -12 -64 -8 -174 8 -231
19 -65 89 -146 155 -179 167 -84 418 -48 646 93 44 27 81 48 83 46 3 -3 -9
-54 -24 -108 -5 -16 11 -17 267 -15 l272 3 248 705 c137 388 249 706 249 708
0 1 -130 2 -289 2 l-289 0 -59 -162 c-33 -90 -103 -280 -154 -422 -87 -241
-97 -263 -142 -312 -64 -70 -142 -109 -219 -109 -52 0 -61 4 -89 32 -25 24
-33 42 -36 80 -5 50 -11 32 252 771 l44 122 -283 0 -284 0 -10 -27z"/>
</g>
</svg>
