<svg xmlns="http://www.w3.org/2000/svg" width="250" height="50" viewBox="0 0 250 50">
    <path fill="#333" fill-rule="evenodd" d="M137.302 4.889c.088 2.78-2.073 5.067-4.806 5.112-2.734.09-4.983-2.108-5.027-4.888-.044-2.78 2.072-5.067 4.806-5.112h.132c2.646-.045 4.85 2.063 4.939 4.753-.044.09-.044.09-.044.135zm-9.171 44.349h8.51V14.575h-8.51v34.663zm44.797-29.865c2.468 2.96 3.527 6.592 3.527 12.197v17.668h-8.554V30.852c0-3.318-.661-5.381-2.205-6.995-1.322-1.345-3.307-2.107-5.555-2.107a11.506 11.506 0 0 0-8.862 4.529l-.088.089v22.78h-8.51V14.485h8.157v3.318l.705-.583c2.69-2.286 6.085-3.497 9.612-3.497 4.541.09 8.863 2.107 11.773 5.65zM250 49.238h-10.053l-8.465-12.332-8.466 12.332h-10.053l13.095-18.565-11.464-16.143h9.7l7.143 10.448 7.143-10.448h9.7l-11.463 16.143L250 49.238zM119.136 19.373c2.337 2.915 3.439 6.546 3.439 11.435v18.385h-8.51V30.45c0-3.004-.529-4.888-1.852-6.368-1.543-1.704-2.821-2.331-4.717-2.331-4.674 0-7.143 3.677-7.937 4.887l-.088.135v.18c.176 1.3.265 2.6.265 3.9v18.386H91.27V30.494c0-3.005-.53-4.888-1.852-6.368-1.543-1.704-2.822-2.332-4.718-2.332-4.1 0-6.261 2.825-7.584 4.485l-.088.134-.044.224v22.646h-8.51V14.62h8.157v3.408l.706-.628c2.734-2.466 5.115-3.498 8.29-3.498 4.188 0 7.583 1.704 10.581 5.426l.309.359.353-.359c3.527-3.767 6.966-5.426 11.243-5.426 4.365-.09 8.113 1.794 11.023 5.47zm70.194 7.892c.485-3.632 4.056-6.592 7.936-6.592 3.748 0 6.879 2.87 7.364 6.637l.044.493h-15.389l.045-.538zm9.435 15.874c-5.29 0-9.347-3.632-9.876-8.834l-.045-.493h24.34c.088-.762.176-1.524.131-2.287 0-9.955-7.054-17.757-16.093-17.757-9.435 0-16.578 7.802-16.578 18.116 0 10.627 7.363 18.026 17.9 18.026 5.336 0 10.583-2.242 13.758-5.919l-4.762-4.843c-1.19 1.3-4.321 3.991-8.775 3.991zM8.907 41.301h21.252v7.937H0V0h8.863l.044 41.3zm45.635-2.466l-.089.134c-1.984 2.466-4.673 3.812-7.54 3.812-2.953 0-5.114-1.794-5.114-4.26 0-3.722 4.1-5.068 7.628-5.068a9.754 9.754 0 0 1 4.894 1.166l.22.135v4.08zM47.84 13.812c-5.38 0-10.097 1.794-12.655 3.408l2.69 6.547c2.38-1.39 5.996-2.735 9.083-2.735 4.806 0 7.584 2.466 7.584 6.726v.718l-.618-.314a15.925 15.925 0 0 0-6.746-1.48c-9.127 0-13.933 5.964-13.933 11.883C33.245 44.977 38.58 50 45.415 50c4.409 0 7.672-2.108 8.686-3.408l.75-.986v3.677h8.156V29.91c0-5.605-1.19-8.251-3.086-10.673-2.69-3.497-7.01-5.426-12.081-5.426zM243.65.674c2.293-.045 4.19 1.838 4.19 4.17.044 2.332-1.808 4.26-4.101 4.26-2.293.045-4.19-1.839-4.19-4.17v-.045c0-2.332 1.81-4.215 4.102-4.215zm0 9.103c2.646 0 4.807-2.198 4.807-4.888S246.297 0 243.65 0s-4.806 2.197-4.806 4.888c0 2.69 2.16 4.888 4.806 4.888zm-1.366-6.996h1.5c.352 0 1.366 0 1.366.897 0 1.031-1.102 1.031-1.5 1.031h-1.366V2.781zm0 2.601h1.367c1.234 0 1.41.449 1.41 1.345.045.718.045.852.177 1.032h.705c-.132-.224-.132-.359-.176-1.3-.044-.718-.176-1.167-.926-1.39v-.046a1.301 1.301 0 0 0 1.014-1.345c0-1.525-1.587-1.525-1.94-1.525h-2.292v5.56h.705l-.044-2.33z"/>
</svg>
