<?xml version="1.0" encoding="utf-8"?>
<svg xmlns="http://www.w3.org/2000/svg" xmlns:xlink="http://www.w3.org/1999/xlink" x="0px" y="0px"
	 viewBox="0 0 200 32.4" style="enable-background:new 0 0 200 32.4;" xml:space="preserve">
	<path fill="#37383c" d="M63.4,16v-0.2c4.2-0.7,5-3.3,5-7.4c0-6.9-3.6-8.2-10.2-8.2H41.4v31.8h17c7.1,0,10.5-1.3,10.5-8.9C69,19,68,16.4,63.4,16z
			M50.1,7.4h7.1c2.4,0.1,2.6,0.8,2.6,2.6c0,2.4-0.6,2.9-3.6,2.9h-6V7.4z M56.4,25h-6.3v-6h6.5c2.8,0,3.7,0.4,3.7,2.9
		C60.3,24.3,59.3,25,56.4,25z M72.9,32.1h8.7V0.3h-8.7V32.1z M95.4,19h13.6v-6H95.4V7.4H110V0.3H86.8v31.8h23.5V25H95.4V19z
			M130.1,12.7l-3.5-0.3c-2.3-0.2-3.4-0.3-3.4-2.7c0-1.6,0.2-2.6,4.9-2.6c3.4,0,4.7,0,4.7,3.2v0.1h8.3V9c0-9-6.3-9-13-9
		c-8.4,0-13.6,0.7-13.6,9.8c0,8.8,4.4,9.1,11.7,9.6l3,0.2c3.7,0.2,4.1,0.3,4.1,2.9c0,2.6-1.3,2.8-5.2,2.8c-4.2,0-5.3-0.3-5.3-3.5
		v-0.1h-8.3v0.1c0,10.6,5.7,10.6,13.6,10.6c6.3,0,10.2-1,12.2-3.2c1.7-1.9,1.7-4.5,1.7-7.1v-0.2C142,14.5,139.6,13.4,130.1,12.7z
			M160.6,12.7l-3.5-0.3c-2.3-0.2-3.4-0.3-3.4-2.7c0-1.6,0.2-2.6,4.9-2.6c3.4,0,4.7,0,4.7,3.2v0.1h8.3V9c0-9-6.3-9-13-9
		C150.1,0,145,0.7,145,9.8c0,8.8,4.4,9.1,11.7,9.6l3,0.2c3.7,0.2,4.1,0.3,4.1,2.9c0,2.6-1.3,2.8-5.2,2.8c-4.2,0-5.3-0.3-5.3-3.5
		v-0.1h-8.3v0.1c0,10.6,5.7,10.6,13.6,10.6c6.3,0,10.2-1,12.2-3.2c1.8-1.9,1.8-4.5,1.7-7.1v-0.2C172.4,14.5,170.1,13.4,160.6,12.7z
			M185.2,25v-6h13.6v-6h-13.6V7.4h14.5V0.3h-23.2v31.8H200V25H185.2z M27.9,0.1H15.9l-4.9,3.6V0.1H0v8.1h4.7L0,11.6l0,0v8.5h4.5
		L0,23.3l0,0v9l5.1-3.6v3.5h12l5-3.7v3.7H33v-8.2h-4.5l4.5-3.3l0,0v-8.7h-4.3L33,9V0l-5.1,3.6V0.1z M1.4,5.5v-4h5.4L1.4,5.5z
			M1.4,17.8v-5.3L16.1,1.5h7.2L1.4,17.8z M31.7,27l0,4l-5.4,0L31.7,27z M31.7,14.6v5.3l-15,11.1H9.5L31.7,14.6z M31.7,2.7V8
		L1.4,29.5v-5.2L31.7,2.7z"/>
</svg>
