<?xml version="1.0" encoding="UTF-8"?><svg id="Livello_1" xmlns="http://www.w3.org/2000/svg" xmlns:xlink="http://www.w3.org/1999/xlink" viewBox="0 0 334.82611 136.2964"><defs><style>.cls-1{mask:url(#mask);}.cls-2{fill:#636362;}.cls-2,.cls-3,.cls-4{fill-rule:evenodd;}.cls-3{fill:#fff;}.cls-4{fill:#002f63;}</style><mask id="mask" x="0" y="0" width="107.088" height="107.09" maskUnits="userSpaceOnUse"><g id="mask-2"><polygon id="path-1" class="cls-3" points="0 53.54535 0 .0007 107.088 .0007 107.088 107.09 0 107.09 0 53.54535"/></g></mask></defs><g id="Page-1"><g id="Group-3"><g class="cls-1"><path id="Fill-1" class="cls-4" d="m33.587,71.994c-.932-1.70901-.847-3.79601.205-5.425L74.306,4.176c-6.388-2.68-13.407-4.176-20.749-4.176C23.969,0,0,23.978,0,53.544c0,29.569,23.969,53.546,53.557,53.546,22.021,0,40.912-13.31499,49.13-32.325H38.254c-1.945,0-3.734-1.054-4.667-2.771M81.978,8.241l-12.545,50.136,36.67,5.232c.62801-3.265.985-6.62.985-10.065,0-19.105-10.043-35.827-25.11-45.303"/></g></g><path id="Fill-4" class="cls-4" d="m134.5206,64.9051c0,3.10699,1.25101,5.378,3.18201,6.937,1.81599,1.432,4.42599,2.147,7.15399,2.147,3.746,0,9.084-1.673,9.084-6.57101,0-4.784-6.019-5.738-9.424-6.577-12.151-3.226-27.369-3.584-27.369-20.321,0-14.941,15.33101-19.006,26.91299-19.006,12.94501,0,26.455,3.945,27.14001,20.081h-17.82901c0-2.627-.908-4.298-2.498-5.379-1.591-1.076-3.74699-1.555-6.133-1.555-3.18001,0-8.289.365-8.289,4.663,0,5.859,12.94701,6.934,21.80099,8.968,11.92201,2.508,14.99001,11.594,14.99001,16.733,0,16.613-14.99001,22.116-28.276,22.116-13.965,0-28.27-4.90301-28.837-22.236h18.391Z"/><path id="Fill-6" class="cls-4" d="m218.211,46.0223c-.116-5.264-4.543-8.969-9.425-8.969-10.787,0-12.491,9.682-12.491,18.289,0,8.011,3.291,16.259,11.47,16.259,6.7,0,10.105-4.065,11.01199-10.642h18.73801c-1.70399,16.62-13.966,26.183-29.64,26.183-17.711,0-30.882-12.793-30.882-31.8,0-19.724,11.922-33.827,30.882-33.827,14.64799,0,27.70799,8.128,29.07001,24.507h-18.73401Z"/><path id="Fill-8" class="cls-4" d="m242.6241,23.308h18.73399v8.487h.23001c3.517-6.216,9.76199-10.281,16.91501-10.281,7.37997,0,13.96698,2.512,17.14798,10.04,4.65402-6.572,10.44299-10.04,18.39102-10.04,18.73499,0,20.784,14.944,20.784,26.778v37.055h-19.30402v-36.455c0-6.698-3.06699-10.643-8.064-10.643-8.289,0-9.08398,6.693-9.08398,16.736v30.362h-19.30301v-35.265c0-7.29-2.04401-11.833-7.26501-11.833-6.92899,0-9.87799,4.181-9.87799,16.856v30.242h-19.304V23.308Z"/><path id="Fill-10" class="cls-2" d="m71.8497,117.3944h-2.054l-2.949,10.4-3.423-10.4h-1.633l-3.396,10.4-2.975-10.4h-2.054l4.108,12.951h1.764l3.37-10.05499,3.397,10.05499h1.764l4.081-12.951Zm12.133,6.477c0-2.002-.26299-3.821-1.577-5.16299-.895-.894-2.133-1.471-3.713-1.471-1.581,0-2.82.577-3.714,1.471-1.315,1.342-1.577,3.161-1.577,5.16299,0,2.001.26199,3.81801,1.577,5.162.894.892,2.133,1.47,3.714,1.47,1.57999,0,2.81799-.578,3.713-1.47,1.314-1.34399,1.577-3.161,1.577-5.162h0Zm-1.892,0c0,1.44701-.07899,3.054-1.028,4.002-.606.606-1.448.94901-2.37.94901s-1.73901-.343-2.345-.94901c-.94801-.948-1.054-2.55499-1.054-4.002,0-1.45.106-3.057,1.054-4.004.606-.607,1.423-.949,2.345-.949s1.764.342,2.37.949c.94901.947,1.028,2.554,1.028,4.004h0Zm15.558,0c0-2.002-.263-3.821-1.577-5.16299-.895-.894-2.133-1.471-3.714-1.471s-2.82.577-3.714,1.471c-1.315,1.342-1.577,3.161-1.577,5.16299,0,2.001.26199,3.81801,1.577,5.162.894.892,2.133,1.47,3.714,1.47s2.819-.578,3.714-1.47c1.314-1.34399,1.577-3.161,1.577-5.162h0Zm-1.893,0c0,1.44701-.079,3.054-1.027,4.002-.607.606-1.449.94901-2.371.94901s-1.739-.343-2.34499-.94901c-.94801-.948-1.053-2.55499-1.053-4.002,0-1.45.105-3.057,1.053-4.004.606-.607,1.423-.949,2.34499-.949s1.764.342,2.371.949c.948.947,1.027,2.554,1.027,4.004h0Zm15.269,6.47501v-18.745h-1.893v7.291c-1.054-1.341-2.239-1.655-3.66199-1.655-1.317,0-2.47601.446-3.16,1.13-1.315,1.315-1.577,3.474-1.577,5.504,0,2.027.262,4.187,1.577,5.502.684.683,1.843,1.13,3.16,1.13,1.423,0,2.63499-.34,3.688-1.70801v1.55101h1.867Zm-1.893-6.47501c0,2.527-.421,4.951-3.24,4.951s-3.267-2.424-3.267-4.951c0-2.53.448-4.953,3.267-4.953s3.24,2.423,3.24,4.953h0Zm22.748-6.477h-2.054l-2.949,10.4-3.423-10.4h-1.632l-3.397,10.4-2.975-10.4h-2.054l4.107,12.951h1.765l3.37-10.05499,3.396,10.05499h1.765l4.081-12.951Zm12.133,6.477c0-2.002-.263-3.821-1.577-5.16299-.896-.894-2.133-1.471-3.714-1.471-1.58,0-2.81799.577-3.713,1.471-1.315,1.342-1.577,3.161-1.577,5.16299,0,2.001.26199,3.81801,1.577,5.162.895.892,2.133,1.47,3.713,1.47,1.58101,0,2.81801-.578,3.714-1.47,1.314-1.34399,1.577-3.161,1.577-5.162h0Zm-1.892,0c0,1.44701-.08,3.054-1.028,4.002-.606.606-1.44899.94901-2.371.94901s-1.73799-.343-2.34399-.94901c-.94901-.948-1.054-2.55499-1.054-4.002,0-1.45.105-3.057,1.054-4.004.606-.607,1.422-.949,2.34399-.949s1.765.342,2.371.949c.948.947,1.028,2.554,1.028,4.004h0Zm14.293-5.425c-.92099-.92101-1.869-1.209-3.106-1.209-1.50099,0-2.92299.656-3.63399,1.734v-1.577h-1.89201v12.951h1.89201v-7.95c0-1.976,1.211-3.477,3.10699-3.477,1.00099,0,1.52699.238,2.23801.949l1.39499-1.421Zm13.034,11.89899l-5.161-8.001,4.397-4.95h-2.369l-5.84599,6.741v-12.534h-1.892v18.744h1.892v-3.73399l2.52699-2.898,4.10901,6.632h2.34299Zm2.84601-16.615h2.13v-2.129h-2.13v2.129Zm.106,16.616h1.89299v-12.93301h-1.89299v12.93301Zm16.55699-.00101v-8.293c0-1.501-.41899-2.713-1.33899-3.606-.789-.789-1.92201-1.209-3.31801-1.209-1.44901,0-2.714.525-3.63699,1.576v-1.419h-1.89101v12.951h1.89101v-7.976c0-2.266,1.26599-3.451,3.215-3.451,1.95,0,3.188,1.16,3.188,3.451v7.976h1.89099Zm13.877.41901v-13.37h-1.866v1.524c-1.05499-1.367-2.213-1.681-3.636-1.681-1.31599,0-2.476.446-3.15999,1.13-1.28801,1.291-1.57701,3.298-1.57701,5.411,0,2.112.289,4.12,1.57701,5.411.68399.68399,1.81699,1.15599,3.13399,1.15599,1.397,0,2.582-.341,3.636-1.681v2.022c0,2.2-1.054,3.95399-3.55699,3.95399-1.50101,0-2.16-.444-3.108-1.28299l-1.23601,1.205c1.36801,1.235,2.448,1.73399,4.397,1.73399,3.39799,0,5.396-2.33701,5.396-5.532h0Zm-1.892-6.986c0,2.429-.39499,4.859-3.21399,4.859s-3.24001-2.43-3.24001-4.859c0-2.43.42101-4.86,3.24001-4.86s3.21399,2.43,3.21399,4.86h0Zm17.58501,6.56699v-1.629h-1c-1.21201,0-1.765-.711-1.765-1.895v-7.903h2.765v-1.445h-2.765v-4.055h-1.892v4.055h-1.63301v1.445h1.63301v7.955c0,1.92199,1.10399,3.47199,3.314,3.47199h1.343Zm13.19-5.976v-.868c0-3.844-1.97501-6.264-5.319-6.264-3.291,0-5.317,2.445-5.317,6.633,0,4.583,2.23599,6.633,5.659,6.633,2.21201,0,3.422-.68201,4.74001-1.998l-1.29001-1.132c-1.028,1.02701-1.896,1.47501-3.397,1.47501-2.47499,0-3.81799-1.634-3.81799-4.479h8.742Zm-1.89601-1.418h-6.84599c.05299-1.055.104-1.451.395-2.161.5-1.187,1.659-1.951,3.028-1.951s2.528.764,3.028,1.951c.28999.71.342,1.106.39499,2.161h0Zm14.929,5.633l-1.291-1.23799c-.97299,1.08-1.737,1.476-2.974,1.476-1.26399,0-2.317-.5-3.002-1.476-.606-.842-.843-1.843-.843-3.47501,0-1.633.237-2.634.843-3.478.685-.975,1.73801-1.475,3.002-1.475,1.237,0,2.00101.37,2.974,1.449l1.291-1.211c-1.343-1.447-2.47499-1.919-4.265-1.919-3.265,0-5.73799,2.209-5.73799,6.634,0,4.424,2.47299,6.632,5.73799,6.632,1.79001,0,2.922-.472,4.265-1.91901h0Zm13.50702,1.761v-8.31899c0-2.924-1.73401-4.789-4.65802-4.789-1.44899,0-2.687.499-3.63599,1.576v-7.212h-1.89201v18.744h1.89201v-8.003c0-2.239,1.29099-3.424,3.241-3.424,1.94899,0,3.16098,1.16,3.16098,3.424v8.003h1.89203Zm14.508,0v-8.293c0-1.501-.42001-2.713-1.34-3.606-.789-.789-1.92203-1.209-3.31802-1.209-1.44897,0-2.71399.525-3.63599,1.576v-1.419h-1.892v12.951h1.892v-7.976c0-2.266,1.26498-3.451,3.21399-3.451,1.95001,0,3.18701,1.16,3.18701,3.451v7.976h1.89301Zm14.21899-6.474c0-2.002-.263-3.821-1.577-5.16299-.89502-.894-2.133-1.471-3.71402-1.471s-2.81998.577-3.71399,1.471c-1.315,1.342-1.577,3.161-1.577,5.16299,0,2.001.26199,3.81801,1.577,5.162.89401.892,2.133,1.47,3.71399,1.47s2.819-.578,3.71402-1.47c1.314-1.34399,1.577-3.161,1.577-5.162h0Zm-1.89301,0c0,1.44701-.07901,3.054-1.02701,4.002-.60699.606-1.44901.94901-2.371.94901s-1.73898-.343-2.345-.94901c-.948-.948-1.05298-2.55499-1.05298-4.002,0-1.45.10498-3.057,1.05298-4.004.60602-.607,1.423-.949,2.345-.949s1.76401.342,2.371.949c.948.947,1.02701,2.554,1.02701,4.004h0Zm10.26599,6.474v-1.629h-1.02798c-1.31601,0-1.737-.632-1.737-1.895v-15.22h-1.89301v15.298c0,1.97501,1.026,3.446,3.289,3.446h1.36899Zm12.29501-6.474c0-2.002-.26199-3.821-1.577-5.16299-.89502-.894-2.133-1.471-3.71301-1.471-1.58099,0-2.819.577-3.71399,1.471-1.314,1.342-1.577,3.161-1.577,5.16299,0,2.001.263,3.81801,1.577,5.162.89499.892,2.133,1.47,3.71399,1.47,1.58002,0,2.81799-.578,3.71301-1.47,1.315-1.34399,1.577-3.161,1.577-5.162h0Zm-1.892,0c0,1.44701-.07901,3.054-1.02701,4.002-.60599.606-1.44901.94901-2.371.94901s-1.73999-.343-2.345-.94901c-.948-.948-1.05399-2.55499-1.05399-4.002,0-1.45.10599-3.057,1.05399-4.004.60501-.607,1.423-.949,2.345-.949s1.76501.342,2.371.949c.948.947,1.02701,2.554,1.02701,4.004h0Zm15.215,6.89301v-13.37h-1.866v1.524c-1.05301-1.367-2.21301-1.681-3.63501-1.681-1.31699,0-2.47699.446-3.16098,1.13-1.28802,1.291-1.57703,3.298-1.57703,5.411,0,2.112.289,4.12,1.57703,5.411.68399.68399,1.81699,1.15599,3.13498,1.15599,1.396,0,2.58099-.341,3.634-1.681v2.022c0,2.2-1.05301,3.95399-3.55499,3.95399-1.50201,0-2.16101-.444-3.10901-1.28299l-1.23499,1.205c1.367,1.235,2.44699,1.73399,4.396,1.73399,3.39899,0,5.396-2.33701,5.396-5.532h0Zm-1.89301-6.986c0,2.429-.39398,4.859-3.21298,4.859s-3.24002-2.43-3.24002-4.859c0-2.43.42102-4.86,3.24002-4.86s3.21298,2.43,3.21298,4.86h0Zm15.45502-6.384h-2.05402l-3.52899,10.4-3.55301-10.4h-2.05399l4.66,12.691-.92102,2.52899c-.422,1.18401-.81699,1.60501-2.133,1.60501h-.57999v1.68199h.81699c.922,0,1.84302-.23599,2.52802-.894.36798-.341.65698-.814.92099-1.52499l5.89801-16.08801Z"/></g></svg>