<?xml version="1.0" standalone="no"?>
<!DOCTYPE svg PUBLIC "-//W3C//DTD SVG 20010904//EN"
 "http://www.w3.org/TR/2001/REC-SVG-20010904/DTD/svg10.dtd">
<svg version="1.0" xmlns="http://www.w3.org/2000/svg"
 width="533.000000pt" height="94.000000pt" viewBox="0 0 533.000000 94.000000"
 preserveAspectRatio="xMidYMid meet">

<g transform="translate(0.000000,94.000000) scale(0.100000,-0.100000)"
fill="#000000" stroke="none">
<path d="M4680 480 l0 -300 40 0 40 0 0 300 0 300 -40 0 -40 0 0 -300z"/>
<path d="M1396 749 c-91 -22 -139 -77 -140 -160 0 -85 48 -128 174 -155 99
-22 148 -47 156 -81 9 -33 -12 -73 -46 -90 -30 -15 -108 -17 -143 -4 -33 13
-67 50 -67 73 0 15 -8 18 -49 18 l-50 0 9 -30 c23 -79 74 -124 160 -140 151
-29 280 43 280 157 0 24 -7 57 -15 73 -28 53 -56 66 -243 112 -119 29 -95 158
29 158 62 0 102 -20 119 -60 11 -27 17 -30 56 -30 48 0 51 5 30 53 -20 49 -77
93 -136 106 -58 13 -70 13 -124 0z"/>
<path d="M3639 751 c-47 -10 -97 -39 -123 -74 -16 -21 -21 -43 -21 -87 0 -90
37 -123 183 -159 102 -25 138 -44 146 -75 15 -60 -36 -106 -119 -106 -66 0
-112 22 -132 64 -15 33 -20 36 -60 36 -42 0 -43 -1 -37 -27 21 -94 103 -147
224 -147 129 0 205 53 216 151 10 91 -47 150 -166 173 -100 21 -131 31 -151
51 -28 28 -24 66 11 101 29 28 35 30 90 26 63 -4 95 -23 111 -65 7 -19 16 -23
54 -23 43 0 46 1 39 23 -23 77 -74 122 -154 137 -58 11 -59 11 -111 1z"/>
<path d="M3210 655 l0 -65 -40 0 c-38 0 -40 -2 -40 -29 0 -27 3 -30 38 -33
l37 -3 5 -146 c4 -126 8 -150 24 -168 24 -27 89 -45 133 -36 30 5 33 9 33 40
0 33 -1 34 -30 29 -19 -4 -39 -1 -55 10 -25 17 -26 18 -23 144 l3 127 53 3
c50 3 52 4 52 33 0 29 -1 29 -55 29 l-55 0 0 65 0 65 -40 0 -40 0 0 -65z"/>
<path d="M4020 655 l0 -65 -40 0 c-38 0 -40 -2 -40 -30 0 -28 2 -30 40 -30
l40 0 0 -129 c0 -138 9 -182 43 -204 30 -19 87 -29 125 -21 28 6 32 11 32 38
0 30 -1 31 -45 31 -30 0 -49 5 -55 15 -5 8 -10 72 -10 143 l0 127 55 0 c54 0
55 0 55 30 0 30 -1 30 -55 30 l-55 0 0 65 0 65 -45 0 -45 0 0 -65z"/>
<path d="M5241 618 c2 -32 2 -32 6 -5 4 23 9 28 24 24 10 -3 17 -1 13 4 -3 5
-14 9 -25 9 -15 0 -19 -6 -18 -32z"/>
<path d="M5275 611 c-3 -5 -2 -12 3 -15 5 -3 9 1 9 9 0 17 -3 19 -12 6z"/>
<path d="M1895 588 c-11 -6 -30 -20 -42 -31 l-23 -20 0 26 c0 25 -3 27 -45 27
l-45 0 0 -205 0 -205 45 0 45 0 0 135 c0 175 18 215 98 215 57 0 66 -25 72
-194 l5 -151 43 -3 42 -3 0 136 c0 102 4 143 15 165 28 55 89 67 130 25 24
-23 25 -28 25 -175 l0 -150 45 0 45 0 -1 153 c0 174 -9 211 -58 244 -58 39
-159 23 -197 -31 l-14 -21 -23 27 c-12 14 -32 31 -44 37 -28 14 -92 14 -118
-1z"/>
<path d="M2502 579 c-41 -21 -72 -61 -72 -94 0 -28 59 -19 90 15 23 25 36 30
74 30 55 0 86 -25 86 -69 0 -28 -1 -29 -82 -40 -153 -22 -188 -46 -188 -128 0
-37 6 -51 33 -77 56 -57 154 -56 211 0 l26 27 0 -32 c0 -30 2 -31 40 -31 l40
0 0 160 c0 186 -6 207 -73 239 -57 28 -129 27 -185 0z m178 -234 c0 -60 -51
-105 -119 -105 -35 0 -71 30 -71 58 0 30 31 50 95 60 94 15 95 15 95 -13z"/>
<path d="M3004 586 c-17 -8 -40 -27 -52 -42 l-21 -29 -1 38 c0 37 -1 37 -40
37 l-40 0 0 -205 0 -205 40 0 40 0 0 115 c0 162 20 203 103 214 41 6 42 7 45
49 3 38 1 42 -20 42 -13 -1 -37 -7 -54 -14z"/>
<path d="M4953 587 c-73 -27 -122 -104 -123 -192 0 -97 36 -166 104 -202 42
-22 150 -22 192 0 36 19 84 72 84 93 0 20 -79 19 -87 -1 -15 -40 -101 -57
-152 -30 -25 13 -61 75 -61 105 0 6 60 10 155 10 l155 0 0 34 c0 41 -17 92
-43 130 -40 56 -146 82 -224 53z m148 -86 c16 -16 29 -39 29 -50 0 -20 -5 -21
-105 -21 -100 0 -105 1 -105 21 0 11 13 34 29 50 24 24 38 29 76 29 38 0 52
-5 76 -29z"/>
<path d="M4240 588 c0 -2 35 -93 78 -203 l78 -200 -22 -55 c-32 -78 -31 -82
18 -78 l43 3 97 255 c53 140 97 261 97 268 1 9 -11 12 -40 10 l-41 -3 -53
-149 c-28 -82 -55 -144 -59 -138 -4 7 -29 74 -55 149 l-49 138 -46 3 c-25 2
-46 2 -46 0z"/>
</g>
</svg>
