<?xml version="1.0" standalone="no"?>
<!DOCTYPE svg PUBLIC "-//W3C//DTD SVG 20010904//EN"
 "http://www.w3.org/TR/2001/REC-SVG-20010904/DTD/svg10.dtd">
<svg version="1.0" xmlns="http://www.w3.org/2000/svg"
 width="2560.000000pt" height="763.000000pt" viewBox="0 0 2560.000000 763.000000"
 preserveAspectRatio="xMidYMid meet">

<g transform="translate(0.000000,763.000000) scale(0.100000,-0.100000)"
fill="#000000" stroke="none">
<path d="M9340 6805 l0 -255 230 0 230 0 0 255 0 255 -230 0 -230 0 0 -255z"/>
<path d="M550 5260 l0 -1790 1790 0 1790 0 0 1780 c0 979 -2 1780 -4 1780 -3
0 -89 -149 -192 -330 -103 -182 -191 -327 -195 -323 -4 5 -35 78 -69 163 -126
315 -221 462 -316 489 -50 15 -294 27 -294 15 0 -5 17 -25 37 -44 54 -53 118
-158 193 -314 70 -147 261 -615 262 -644 1 -14 -168 -317 -389 -700 -14 -24
-28 -40 -32 -35 -4 4 -110 274 -236 598 -125 325 -254 644 -286 711 -100 206
-210 343 -324 402 -47 25 -60 27 -217 30 -118 3 -168 1 -168 -7 0 -6 4 -11 10
-11 5 0 65 -55 133 -122 196 -196 285 -344 437 -724 l72 -181 -199 -351 c-109
-193 -201 -352 -204 -352 -3 0 -59 129 -124 288 -230 561 -382 812 -648 1069
-247 238 -478 353 -779 387 l-48 6 0 -1790z"/>
<path d="M4810 7038 c0 -7 210 -813 467 -1790 l468 -1778 240 0 240 0 315
1346 c173 740 318 1350 322 1357 4 6 9 9 11 7 2 -3 143 -612 313 -1355 l309
-1350 237 -3 237 -2 15 52 c23 79 936 3518 936 3524 0 2 -107 3 -237 2 l-237
-3 -18 -70 c-21 -79 -316 -1250 -534 -2115 -80 -316 -147 -582 -151 -590 -4
-12 -7 -11 -14 5 -4 11 -144 632 -309 1380 -166 748 -303 1368 -306 1378 -5
16 -25 17 -239 17 -214 0 -234 -1 -239 -17 -2 -10 -147 -632 -321 -1383 -173
-751 -319 -1374 -324 -1385 -11 -26 22 -157 -357 1415 -179 745 -328 1358
-331 1363 -2 4 -114 7 -249 7 -188 0 -244 -3 -244 -12z"/>
<path d="M10487 7043 c-4 -3 -7 -809 -7 -1790 l0 -1783 210 0 210 0 0 1790 0
1790 -203 0 c-112 0 -207 -3 -210 -7z"/>
<path d="M24817 6996 c-137 -49 -214 -171 -205 -326 8 -130 69 -229 174 -281
41 -20 64 -24 139 -24 78 0 97 4 147 28 69 34 121 91 149 166 30 80 24 214
-14 287 -34 67 -106 130 -170 149 -62 18 -169 19 -220 1z m237 -74 c84 -46
126 -124 126 -237 0 -163 -97 -265 -252 -265 -109 0 -183 44 -230 135 -25 48
-35 154 -19 210 44 163 223 238 375 157z"/>
<path d="M24810 6695 l0 -185 30 0 30 0 0 70 0 70 35 0 c33 0 36 -3 70 -70 34
-67 37 -70 70 -70 19 0 35 2 35 5 0 2 -16 38 -36 78 l-36 73 31 31 c24 25 31
40 31 72 0 78 -56 110 -192 111 l-68 0 0 -185z m182 108 c25 -22 23 -59 -4
-77 -13 -9 -43 -16 -70 -16 l-48 0 0 55 0 55 52 0 c34 0 58 -6 70 -17z"/>
<path d="M23610 6475 l0 -425 -190 0 -190 0 0 -175 0 -175 190 0 190 0 0 -837
c0 -484 5 -878 10 -933 32 -302 134 -436 370 -486 60 -13 114 -15 270 -10 107
3 224 11 260 18 l65 13 3 178 c2 144 0 177 -11 177 -8 0 -58 -7 -113 -15 -194
-29 -290 -14 -360 59 -76 80 -74 50 -74 999 l0 837 280 0 280 0 0 175 0 175
-280 0 -280 0 0 425 0 425 -210 0 -210 0 0 -425z"/>
<path d="M12144 6095 c-291 -45 -507 -187 -610 -400 -50 -104 -65 -173 -65
-307 0 -213 45 -333 176 -464 130 -131 248 -187 645 -303 296 -87 422 -143
504 -225 72 -72 99 -141 99 -251 -1 -102 -28 -176 -90 -245 -161 -180 -592
-201 -837 -41 -70 46 -170 145 -235 234 -23 32 -46 57 -51 55 -23 -8 -299
-214 -300 -223 0 -18 98 -141 172 -215 136 -135 294 -222 496 -272 76 -19 115
-22 302 -23 241 0 317 11 472 69 126 47 192 90 288 186 137 137 188 258 197
466 11 235 -46 395 -191 540 -132 131 -272 198 -637 304 -281 82 -376 117
-457 169 -133 87 -180 215 -133 368 26 86 77 147 158 190 81 43 152 57 273 57
191 -2 321 -50 444 -165 40 -38 88 -91 107 -118 19 -28 36 -51 39 -51 3 0 74
47 158 104 l152 104 -58 78 c-103 139 -206 223 -354 294 -182 86 -442 120
-664 85z"/>
<path d="M14635 6099 c-302 -38 -548 -188 -712 -434 -245 -366 -307 -1034
-142 -1519 127 -372 376 -614 727 -708 99 -26 344 -36 463 -19 302 44 560 220
718 489 253 433 265 1177 26 1652 -199 395 -606 598 -1080 539z m353 -375
c242 -81 398 -311 457 -677 15 -95 22 -307 14 -436 -19 -312 -94 -522 -242
-677 -113 -120 -247 -174 -427 -174 -358 0 -586 245 -655 705 -20 134 -20 435
1 572 55 374 217 613 469 693 110 35 267 33 383 -6z"/>
<path d="M17620 6104 c-14 -2 -52 -9 -85 -15 -123 -21 -273 -82 -397 -162 -66
-42 -192 -143 -237 -191 -19 -20 -39 -36 -43 -36 -4 0 -8 79 -8 175 l0 175
-200 0 -200 0 0 -1292 0 -1293 210 3 210 3 0 933 0 933 84 81 c162 156 327
259 476 298 96 25 265 23 351 -5 119 -38 192 -123 229 -266 19 -76 20 -111 20
-1027 l0 -948 216 0 215 0 -3 983 c-4 892 -6 991 -22 1077 -35 181 -88 291
-196 400 -113 114 -261 168 -475 175 -66 2 -131 2 -145 -1z"/>
<path d="M19935 6104 c-212 -29 -312 -56 -429 -116 -153 -76 -279 -188 -386
-340 -40 -57 -48 -74 -38 -84 33 -30 291 -185 297 -177 4 4 26 34 50 65 102
136 245 242 381 282 94 28 235 39 346 27 176 -20 278 -70 343 -167 50 -77 64
-133 69 -291 l4 -142 -24 -5 c-12 -3 -99 -22 -193 -42 -366 -77 -712 -178
-890 -259 -173 -79 -318 -200 -398 -332 -20 -32 -51 -102 -69 -154 -31 -91
-32 -99 -33 -259 0 -145 3 -174 23 -240 54 -174 162 -304 312 -377 104 -51
189 -72 317 -80 292 -17 625 98 886 305 36 29 67 52 69 52 3 0 8 -28 12 -62 3
-35 11 -102 17 -150 l12 -88 203 0 204 0 0 33 c0 17 -8 91 -17 162 -13 106
-17 290 -22 980 -8 957 -3 897 -88 1074 -95 199 -273 319 -543 367 -83 14
-355 27 -415 18z m625 -1620 l0 -366 -64 -63 c-168 -165 -416 -280 -649 -301
-134 -12 -270 25 -350 95 -82 73 -129 234 -108 372 49 314 241 429 986 594 83
19 158 34 168 34 16 1 17 -23 17 -365z"/>
<path d="M22745 6100 c-84 -12 -166 -40 -250 -83 -109 -56 -256 -202 -351
-347 l-69 -105 -3 243 -2 242 -200 0 -200 0 0 -1290 0 -1290 210 0 210 0 0
798 0 799 48 94 c180 353 418 528 720 529 l82 0 -2 208 -3 207 -70 1 c-38 1
-93 -2 -120 -6z"/>
<path d="M9360 4760 l0 -1290 210 0 210 0 0 1290 0 1290 -210 0 -210 0 0
-1290z"/>
<path d="M3892 1980 c-210 -29 -362 -145 -452 -344 -121 -267 -116 -716 12
-975 81 -165 215 -264 400 -297 189 -34 358 9 480 124 l48 45 0 -77 0 -76 85
0 85 0 0 380 0 380 -275 0 -275 0 0 -85 0 -85 186 0 187 0 -6 -82 c-10 -160
-76 -267 -200 -324 -56 -26 -72 -29 -172 -29 -103 0 -114 2 -177 32 -83 39
-141 98 -184 187 -55 115 -69 195 -69 406 0 217 14 296 76 420 74 148 186 221
341 221 100 0 163 -20 223 -73 64 -57 93 -105 138 -229 5 -15 13 -15 98 2 51
11 94 21 96 22 6 7 -46 148 -74 199 -41 75 -123 160 -191 196 -103 55 -252 79
-380 62z"/>
<path d="M14805 1980 c-238 -32 -383 -177 -393 -391 -7 -141 30 -235 125 -318
66 -59 151 -100 343 -166 90 -31 182 -66 204 -77 65 -33 122 -84 145 -131 45
-93 14 -233 -64 -293 -113 -86 -322 -95 -446 -21 -60 36 -121 110 -146 177 -9
25 -20 49 -24 53 -9 11 -180 -44 -186 -60 -3 -7 13 -51 36 -97 73 -150 181
-243 332 -283 87 -22 281 -22 369 0 239 62 363 231 347 473 -13 218 -132 324
-502 449 -172 59 -239 92 -287 142 -42 44 -58 79 -58 130 0 93 48 166 138 210
51 25 67 28 157 28 83 -1 109 -5 152 -24 59 -26 130 -97 163 -162 12 -24 23
-45 24 -46 3 -3 169 56 174 62 2 2 -12 37 -32 79 -59 129 -166 217 -304 250
-76 19 -193 26 -267 16z"/>
<path d="M21725 1980 c-252 -34 -423 -206 -498 -498 -20 -78 -22 -111 -21
-322 0 -222 2 -241 27 -334 69 -256 205 -405 417 -457 77 -19 260 -16 339 5
131 35 228 106 302 220 37 56 99 200 99 230 0 9 -24 19 -72 30 -125 27 -115
30 -147 -51 -52 -132 -129 -212 -239 -248 -77 -25 -220 -18 -287 15 -99 48
-174 150 -209 285 -40 157 -45 414 -11 570 31 143 115 275 211 331 60 36 99
45 187 45 145 0 245 -69 313 -216 19 -41 34 -78 34 -84 0 -5 4 -12 9 -15 10
-6 172 23 184 34 10 9 -35 137 -74 211 -39 72 -119 155 -185 191 -92 50 -255
75 -379 58z"/>
<path d="M24290 1981 c-146 -20 -260 -81 -328 -175 -55 -77 -76 -159 -70 -273
6 -111 36 -179 112 -251 68 -65 155 -108 357 -177 172 -60 234 -88 292 -136
93 -76 103 -228 23 -333 -57 -75 -217 -120 -347 -98 -134 23 -215 86 -271 211
-17 36 -32 68 -33 69 -7 8 -178 -54 -183 -66 -2 -7 14 -51 37 -98 74 -150 182
-241 332 -281 86 -23 280 -23 369 1 225 58 350 214 350 436 0 125 -40 220
-128 302 -65 61 -154 105 -352 173 -187 65 -261 100 -309 147 -109 106 -68
283 81 349 76 34 231 34 303 1 63 -29 118 -82 157 -152 17 -30 32 -56 33 -58
2 -2 166 58 174 64 1 1 -14 38 -34 80 -63 131 -166 215 -303 248 -74 19 -193
26 -262 17z"/>
<path d="M570 1170 l0 -790 493 0 492 0 0 90 0 90 -387 0 -388 0 0 275 0 275
265 0 265 0 0 90 0 90 -265 0 -265 0 0 245 0 245 370 0 370 0 0 90 0 90 -475
0 -475 0 0 -790z"/>
<path d="M1840 1170 l0 -790 100 0 100 0 2 663 3 664 387 -661 386 -661 106
-3 106 -3 0 791 0 790 -100 0 -100 0 -2 -602 -3 -603 -345 603 -344 602 -148
0 -148 0 0 -790z"/>
<path d="M4940 1170 l0 -790 105 0 105 0 0 790 0 790 -105 0 -105 0 0 -790z"/>
<path d="M5570 1170 l0 -790 100 0 100 0 2 667 3 668 225 -385 c124 -212 300
-512 390 -667 l165 -282 103 -1 102 0 0 790 0 790 -95 0 -95 0 -1 -582 c-1
-321 -2 -587 -4 -593 -1 -5 -3 -14 -3 -20 -1 -5 -156 260 -345 590 l-343 600
-152 3 -152 3 0 -791z"/>
<path d="M7190 1170 l0 -790 490 0 490 0 0 90 0 90 -385 0 -385 0 0 275 0 275
265 0 265 0 0 90 0 90 -265 0 -265 0 0 245 0 245 370 0 370 0 0 90 0 90 -475
0 -475 0 0 -790z"/>
<path d="M8460 1170 l0 -790 490 0 490 0 0 90 0 90 -385 0 -385 0 0 275 0 275
265 0 265 0 0 90 0 90 -265 0 -265 0 0 245 0 245 370 0 370 0 0 90 0 90 -475
0 -475 0 0 -790z"/>
<path d="M9730 1170 l0 -790 105 0 105 0 0 340 0 340 183 0 182 0 167 -340
166 -340 117 0 c64 0 115 3 113 8 -2 4 -85 169 -185 368 l-181 361 36 12 c98
34 187 115 230 210 22 46 27 74 30 162 6 160 -25 249 -116 331 -50 45 -79 60
-162 87 -105 33 -205 41 -506 41 l-284 0 0 -790z m695 587 c63 -20 119 -67
147 -120 17 -33 22 -59 22 -122 0 -95 -21 -143 -84 -197 -70 -61 -118 -71
-357 -76 l-213 -4 0 272 0 272 218 -5 c162 -3 230 -8 267 -20z"/>
<path d="M11180 1170 l0 -790 495 0 495 0 0 90 0 90 -390 0 -390 0 0 275 0
275 265 0 265 0 0 90 0 90 -265 0 -265 0 0 245 0 245 370 0 370 0 0 90 0 90
-475 0 -475 0 0 -790z"/>
<path d="M12450 1170 l0 -790 239 0 c263 0 355 9 476 47 291 91 443 312 470
688 8 109 -8 275 -36 376 -58 209 -181 345 -376 416 -112 40 -232 53 -515 53
l-258 0 0 -790z m618 585 c189 -45 308 -174 347 -379 20 -102 19 -296 -1 -394
-32 -161 -118 -288 -234 -347 -100 -51 -134 -57 -332 -62 l-188 -5 0 601 0
601 173 0 c117 0 192 -5 235 -15z"/>
<path d="M15763 1393 c4 -630 5 -644 71 -778 88 -179 245 -259 506 -258 211 0
330 41 440 152 68 69 105 133 136 236 16 54 18 118 21 638 l4 577 -101 0 -100
0 0 -522 c0 -318 -4 -549 -11 -588 -22 -138 -83 -225 -194 -277 -56 -26 -68
-28 -195 -28 -116 0 -141 3 -181 21 -98 46 -155 126 -178 248 -7 39 -11 253
-11 603 l0 543 -106 0 -105 0 4 -567z"/>
<path d="M17360 1171 l0 -791 105 0 105 0 0 340 0 340 183 0 183 0 167 -340
166 -340 115 0 c64 0 116 2 116 5 0 3 -81 164 -180 359 -99 194 -180 357 -180
362 0 6 27 22 59 37 174 80 262 253 232 456 -14 97 -49 167 -110 224 -59 56
-110 82 -209 109 -69 19 -112 22 -414 26 l-338 4 0 -791z m700 584 c72 -22
142 -92 158 -158 34 -132 -15 -259 -119 -313 -61 -31 -159 -44 -346 -44 l-183
0 0 271 0 271 218 -5 c168 -3 229 -8 272 -22z"/>
<path d="M18810 1170 l0 -790 105 0 105 0 0 365 0 365 280 0 280 0 0 90 0 90
-280 0 -280 0 0 245 0 245 385 0 385 0 0 90 0 90 -490 0 -490 0 0 -790z"/>
<path d="M20009 1173 l-245 -788 99 -3 c55 -1 102 -1 104 2 4 4 32 93 119 384
l25 82 286 -2 286 -3 52 -175 c29 -96 60 -201 69 -232 l17 -58 110 0 c100 0
110 2 105 18 -3 9 -102 330 -221 712 -119 382 -227 729 -240 770 l-23 75 -149
3 -148 2 -246 -787z m505 236 c58 -196 106 -361 106 -367 0 -9 -62 -12 -225
-12 -124 0 -225 4 -225 9 0 7 75 257 197 660 13 46 28 79 33 75 4 -5 55 -169
114 -365z"/>
<path d="M22700 1170 l0 -790 490 0 490 0 0 90 0 90 -390 0 -390 0 0 275 0
275 270 0 270 0 0 90 0 90 -270 0 -270 0 2 243 3 242 373 3 372 2 0 90 0 90
-475 0 -475 0 0 -790z"/>
</g>
</svg>
